<?xml version="1.0" encoding="UTF-8" standalone="no"?>
<!-- Created with Inkscape (http://www.inkscape.org/) -->

<svg
   xmlns:dc="http://purl.org/dc/elements/1.1/"
   xmlns:cc="http://creativecommons.org/ns#"
   xmlns:rdf="http://www.w3.org/1999/02/22-rdf-syntax-ns#"
   xmlns:svg="http://www.w3.org/2000/svg"
   xmlns="http://www.w3.org/2000/svg"
   xmlns:sodipodi="http://sodipodi.sourceforge.net/DTD/sodipodi-0.dtd"
   xmlns:inkscape="http://www.inkscape.org/namespaces/inkscape"
   id="svg2"
   version="1.1"
   inkscape:version="0.91 r13725"
   xml:space="preserve"
   width="1235"
   height="807.5"
   viewBox="0 0 1235 807.5"
   sodipodi:docname="WasserV2_image.svg"><metadata
     id="metadata8"><rdf:RDF><cc:Work
         rdf:about=""><dc:format>image/svg+xml</dc:format><dc:type
           rdf:resource="http://purl.org/dc/dcmitype/StillImage" /><dc:title></dc:title></cc:Work></rdf:RDF></metadata><defs
     id="defs6"><clipPath
       clipPathUnits="userSpaceOnUse"
       id="clipPath16"><path
         d="M 0,646 988,646 988,0 0,0 0,646 Z"
         id="path18"
         inkscape:connector-curvature="0" /></clipPath><clipPath
       clipPathUnits="userSpaceOnUse"
       id="clipPath136"><path
         d="m 82.9023,320.193 12.1973,0 0,-12.572 -12.1973,0 0,12.572 z"
         id="path138"
         inkscape:connector-curvature="0" /></clipPath><clipPath
       clipPathUnits="userSpaceOnUse"
       id="clipPath140"><path
         d="m 82.9023,320.193 12.1973,0 0,-12.572 -12.1973,0 0,12.572 z"
         id="path142"
         inkscape:connector-curvature="0" /></clipPath><clipPath
       clipPathUnits="userSpaceOnUse"
       id="clipPath178"><path
         d="m 677.9,181.692 12.198,0 0,-12.572 -12.198,0 0,12.572 z"
         id="path180"
         inkscape:connector-curvature="0" /></clipPath><clipPath
       clipPathUnits="userSpaceOnUse"
       id="clipPath182"><path
         d="m 677.9,181.692 12.198,0 0,-12.572 -12.198,0 0,12.572 z"
         id="path184"
         inkscape:connector-curvature="0" /></clipPath><clipPath
       clipPathUnits="userSpaceOnUse"
       id="clipPath224"><path
         d="m 736.902,171.693 12.198,0 0,-12.572 -12.198,0 0,12.572 z"
         id="path226"
         inkscape:connector-curvature="0" /></clipPath><clipPath
       clipPathUnits="userSpaceOnUse"
       id="clipPath228"><path
         d="m 736.902,171.693 12.198,0 0,-12.572 -12.198,0 0,12.572 z"
         id="path230"
         inkscape:connector-curvature="0" /></clipPath><clipPath
       clipPathUnits="userSpaceOnUse"
       id="clipPath258"><path
         d="m 736.903,75.6934 12.198,0 0,-12.5723 -12.198,0 0,12.5723 z"
         id="path260"
         inkscape:connector-curvature="0" /></clipPath><clipPath
       clipPathUnits="userSpaceOnUse"
       id="clipPath262"><path
         d="m 736.903,75.6934 12.198,0 0,-12.5723 -12.198,0 0,12.5723 z"
         id="path264"
         inkscape:connector-curvature="0" /></clipPath><clipPath
       clipPathUnits="userSpaceOnUse"
       id="clipPath364"><path
         d="m 562.903,97.8213 12.198,0 0,-12.5723 -12.198,0 0,12.5723 z"
         id="path366"
         inkscape:connector-curvature="0" /></clipPath><clipPath
       clipPathUnits="userSpaceOnUse"
       id="clipPath368"><path
         d="m 562.903,97.8213 12.198,0 0,-12.5723 -12.198,0 0,12.5723 z"
         id="path370"
         inkscape:connector-curvature="0" /></clipPath></defs><sodipodi:namedview
     pagecolor="#ffffff"
     bordercolor="#666666"
     borderopacity="1"
     objecttolerance="10"
     gridtolerance="10"
     guidetolerance="10"
     inkscape:pageopacity="0"
     inkscape:pageshadow="2"
     inkscape:window-width="687"
     inkscape:window-height="480"
     id="namedview4"
     showgrid="false"
     inkscape:zoom="0.29226006"
     inkscape:cx="617.5"
     inkscape:cy="403.75"
     inkscape:window-x="0"
     inkscape:window-y="0"
     inkscape:window-maximized="0"
     inkscape:current-layer="g10" /><g
     id="g10"
     inkscape:groupmode="layer"
     inkscape:label="WasserV2_image"
     transform="matrix(1.25,0,0,-1.25,0,807.5)"><g
       id="g12"><g
         id="g14"
         clip-path="url(#clipPath16)"><path
           d="m 430.75,220.25 0,75.75"
           style="fill:none;stroke:#000000;stroke-width:2;stroke-linecap:round;stroke-linejoin:miter;stroke-miterlimit:4;stroke-dasharray:6, 4;stroke-dashoffset:0;stroke-opacity:1"
           id="path20"
           inkscape:connector-curvature="0" /><path
           d="m 295.75,196 0,-38.75"
           style="fill:none;stroke:#000000;stroke-width:2;stroke-linecap:round;stroke-linejoin:miter;stroke-miterlimit:4;stroke-dasharray:3, 3;stroke-dashoffset:0;stroke-opacity:1"
           id="path22"
           inkscape:connector-curvature="0" /><path
           d="m 326,196.5 0,-38.75"
           style="fill:none;stroke:#000000;stroke-width:2;stroke-linecap:round;stroke-linejoin:miter;stroke-miterlimit:4;stroke-dasharray:3, 3;stroke-dashoffset:0;stroke-opacity:1"
           id="path24"
           inkscape:connector-curvature="0" /><path
           d="m 355.5,196 0,-38.75"
           style="fill:none;stroke:#000000;stroke-width:2;stroke-linecap:round;stroke-linejoin:miter;stroke-miterlimit:4;stroke-dasharray:3, 3;stroke-dashoffset:0;stroke-opacity:1"
           id="path26"
           inkscape:connector-curvature="0" /><path
           d="m 150,156.956 205.5,0"
           style="fill:none;stroke:#000000;stroke-width:2;stroke-linecap:round;stroke-linejoin:miter;stroke-miterlimit:1;stroke-dasharray:3, 3;stroke-dashoffset:0;stroke-opacity:1"
           id="path28"
           inkscape:connector-curvature="0" /><path
           d="m 609.75,72 -222.5,0"
           style="fill:none;stroke:#000000;stroke-width:2;stroke-linecap:round;stroke-linejoin:miter;stroke-miterlimit:4;stroke-dasharray:none;stroke-opacity:1"
           id="path30"
           inkscape:connector-curvature="0" /><path
           d="m 616,146 -185,0"
           style="fill:none;stroke:#000000;stroke-width:2;stroke-linecap:round;stroke-linejoin:miter;stroke-miterlimit:4;stroke-dasharray:6, 4;stroke-dashoffset:0;stroke-opacity:1"
           id="path32"
           inkscape:connector-curvature="0" /><path
           d="m 609.713,176 -148.79,0"
           style="fill:none;stroke:#000000;stroke-width:2;stroke-linecap:round;stroke-linejoin:miter;stroke-miterlimit:4;stroke-dasharray:none;stroke-opacity:1"
           id="path34"
           inkscape:connector-curvature="0" /><path
           d="m 109,411 0,-378 10,0 0,383"
           style="fill:#938d8d;fill-opacity:1;fill-rule:nonzero;stroke:none"
           id="path36"
           inkscape:connector-curvature="0" /><path
           d="m 109,411 0,-378 10,0 0,383"
           style="fill:none;stroke:#000000;stroke-width:1;stroke-linecap:round;stroke-linejoin:miter;stroke-miterlimit:4;stroke-dasharray:none;stroke-opacity:1"
           id="path38"
           inkscape:connector-curvature="0" /><path
           d="M 494.163,616.007 66.119,388.412 66,399.405 494.047,627"
           style="fill:#938d8d;fill-opacity:1;fill-rule:nonzero;stroke:none"
           id="path40"
           inkscape:connector-curvature="0" /><path
           d="M 494.163,616.007 66.119,388.412 66,399.405 494.047,627"
           style="fill:none;stroke:#000000;stroke-width:1;stroke-linecap:round;stroke-linejoin:miter;stroke-miterlimit:4;stroke-dasharray:none;stroke-opacity:1"
           id="path42"
           inkscape:connector-curvature="0" /><path
           d="M 109,80 41,80"
           style="fill:none;stroke:#000000;stroke-width:0.75;stroke-linecap:round;stroke-linejoin:miter;stroke-miterlimit:4;stroke-dasharray:none;stroke-opacity:1"
           id="path44"
           inkscape:connector-curvature="0" /><path
           d="m 108,80 -6,-6"
           style="fill:none;stroke:#000000;stroke-width:0.75;stroke-linecap:round;stroke-linejoin:miter;stroke-miterlimit:4;stroke-dasharray:none;stroke-opacity:1"
           id="path46"
           inkscape:connector-curvature="0" /><path
           d="M 102,80 96,74"
           style="fill:none;stroke:#000000;stroke-width:0.75;stroke-linecap:round;stroke-linejoin:miter;stroke-miterlimit:4;stroke-dasharray:none;stroke-opacity:1"
           id="path48"
           inkscape:connector-curvature="0" /><path
           d="M 96,80 90,74"
           style="fill:none;stroke:#000000;stroke-width:0.75;stroke-linecap:round;stroke-linejoin:miter;stroke-miterlimit:4;stroke-dasharray:none;stroke-opacity:1"
           id="path50"
           inkscape:connector-curvature="0" /><path
           d="M 90,80 84,74"
           style="fill:none;stroke:#000000;stroke-width:0.75;stroke-linecap:round;stroke-linejoin:miter;stroke-miterlimit:4;stroke-dasharray:none;stroke-opacity:1"
           id="path52"
           inkscape:connector-curvature="0" /><path
           d="M 84,80 78,74"
           style="fill:none;stroke:#000000;stroke-width:0.75;stroke-linecap:round;stroke-linejoin:miter;stroke-miterlimit:4;stroke-dasharray:none;stroke-opacity:1"
           id="path54"
           inkscape:connector-curvature="0" /><path
           d="M 78,80 72,74"
           style="fill:none;stroke:#000000;stroke-width:0.75;stroke-linecap:round;stroke-linejoin:miter;stroke-miterlimit:4;stroke-dasharray:none;stroke-opacity:1"
           id="path56"
           inkscape:connector-curvature="0" /><path
           d="M 72,80 66,74"
           style="fill:none;stroke:#000000;stroke-width:0.75;stroke-linecap:round;stroke-linejoin:miter;stroke-miterlimit:4;stroke-dasharray:none;stroke-opacity:1"
           id="path58"
           inkscape:connector-curvature="0" /><path
           d="M 66,80 60,74"
           style="fill:none;stroke:#000000;stroke-width:0.75;stroke-linecap:round;stroke-linejoin:miter;stroke-miterlimit:4;stroke-dasharray:none;stroke-opacity:1"
           id="path60"
           inkscape:connector-curvature="0" /><path
           d="M 60,80 54,74"
           style="fill:none;stroke:#000000;stroke-width:0.75;stroke-linecap:round;stroke-linejoin:miter;stroke-miterlimit:4;stroke-dasharray:none;stroke-opacity:1"
           id="path62"
           inkscape:connector-curvature="0" /><path
           d="M 54,80 48,74"
           style="fill:none;stroke:#000000;stroke-width:0.75;stroke-linecap:round;stroke-linejoin:miter;stroke-miterlimit:4;stroke-dasharray:none;stroke-opacity:1"
           id="path64"
           inkscape:connector-curvature="0" /><path
           d="M 48,80 42,74"
           style="fill:none;stroke:#000000;stroke-width:0.75;stroke-linecap:round;stroke-linejoin:miter;stroke-miterlimit:4;stroke-dasharray:none;stroke-opacity:1"
           id="path66"
           inkscape:connector-curvature="0" /><path
           d="M 42,80 36,74"
           style="fill:none;stroke:#000000;stroke-width:0.75;stroke-linecap:round;stroke-linejoin:miter;stroke-miterlimit:4;stroke-dasharray:none;stroke-opacity:1"
           id="path68"
           inkscape:connector-curvature="0" /><path
           d="m 716.693,514.64 142.286,-75.337 2.808,5.302 -142.287,75.336 -2.807,-5.301 z"
           style="fill:none;stroke:#000000;stroke-width:2;stroke-linecap:round;stroke-linejoin:miter;stroke-miterlimit:4;stroke-dasharray:none;stroke-opacity:1"
           id="path70"
           inkscape:connector-curvature="0" /><path
           d="m 569.997,592.698 142.286,-75.337 2.808,5.304 -142.287,75.335 -2.807,-5.302 z"
           style="fill:none;stroke:#000000;stroke-width:2;stroke-linecap:round;stroke-linejoin:miter;stroke-miterlimit:4;stroke-dasharray:none;stroke-opacity:1"
           id="path72"
           inkscape:connector-curvature="0" /><path
           d="m 869,418 0,-382 10,0 0,377"
           style="fill:#938d8d;fill-opacity:1;fill-rule:nonzero;stroke:none"
           id="path74"
           inkscape:connector-curvature="0" /><path
           d="m 869,418 0,-382 10,0 0,377"
           style="fill:none;stroke:#000000;stroke-width:1;stroke-linecap:butt;stroke-linejoin:miter;stroke-miterlimit:4;stroke-dasharray:none;stroke-opacity:1"
           id="path76"
           inkscape:connector-curvature="0" /><path
           d="m 879,33 -770,0 0,10 770,0 0,-10 z"
           style="fill:#938d8d;fill-opacity:1;fill-rule:nonzero;stroke:none"
           id="path78"
           inkscape:connector-curvature="0" /><path
           d="m 879,33 -770,0 0,10 770,0 0,-10 z"
           style="fill:none;stroke:#000000;stroke-width:1;stroke-linecap:butt;stroke-linejoin:miter;stroke-miterlimit:4;stroke-dasharray:none;stroke-opacity:1"
           id="path80"
           inkscape:connector-curvature="0" /><path
           d="m 879,80 69,0"
           style="fill:none;stroke:#000000;stroke-width:0.75;stroke-linecap:round;stroke-linejoin:miter;stroke-miterlimit:4;stroke-dasharray:none;stroke-opacity:1"
           id="path82"
           inkscape:connector-curvature="0" /><path
           d="m 880,80 6,-6"
           style="fill:none;stroke:#000000;stroke-width:0.75;stroke-linecap:round;stroke-linejoin:miter;stroke-miterlimit:4;stroke-dasharray:none;stroke-opacity:1"
           id="path84"
           inkscape:connector-curvature="0" /><path
           d="m 886,80 6,-6"
           style="fill:none;stroke:#000000;stroke-width:0.75;stroke-linecap:round;stroke-linejoin:miter;stroke-miterlimit:4;stroke-dasharray:none;stroke-opacity:1"
           id="path86"
           inkscape:connector-curvature="0" /><path
           d="m 892,80 6,-6"
           style="fill:none;stroke:#000000;stroke-width:0.75;stroke-linecap:round;stroke-linejoin:miter;stroke-miterlimit:4;stroke-dasharray:none;stroke-opacity:1"
           id="path88"
           inkscape:connector-curvature="0" /><path
           d="m 898,80 6,-6"
           style="fill:none;stroke:#000000;stroke-width:0.75;stroke-linecap:round;stroke-linejoin:miter;stroke-miterlimit:4;stroke-dasharray:none;stroke-opacity:1"
           id="path90"
           inkscape:connector-curvature="0" /><path
           d="m 904,80 6,-6"
           style="fill:none;stroke:#000000;stroke-width:0.75;stroke-linecap:round;stroke-linejoin:miter;stroke-miterlimit:4;stroke-dasharray:none;stroke-opacity:1"
           id="path92"
           inkscape:connector-curvature="0" /><path
           d="m 910,80 6,-6"
           style="fill:none;stroke:#000000;stroke-width:0.75;stroke-linecap:round;stroke-linejoin:miter;stroke-miterlimit:4;stroke-dasharray:none;stroke-opacity:1"
           id="path94"
           inkscape:connector-curvature="0" /><path
           d="m 916,80 6,-6"
           style="fill:none;stroke:#000000;stroke-width:0.75;stroke-linecap:round;stroke-linejoin:miter;stroke-miterlimit:4;stroke-dasharray:none;stroke-opacity:1"
           id="path96"
           inkscape:connector-curvature="0" /><path
           d="m 922,80 6,-6"
           style="fill:none;stroke:#000000;stroke-width:0.75;stroke-linecap:round;stroke-linejoin:miter;stroke-miterlimit:4;stroke-dasharray:none;stroke-opacity:1"
           id="path98"
           inkscape:connector-curvature="0" /><path
           d="m 928,80 6,-6"
           style="fill:none;stroke:#000000;stroke-width:0.75;stroke-linecap:round;stroke-linejoin:miter;stroke-miterlimit:4;stroke-dasharray:none;stroke-opacity:1"
           id="path100"
           inkscape:connector-curvature="0" /><path
           d="m 934,80 6,-6"
           style="fill:none;stroke:#000000;stroke-width:0.75;stroke-linecap:round;stroke-linejoin:miter;stroke-miterlimit:4;stroke-dasharray:none;stroke-opacity:1"
           id="path102"
           inkscape:connector-curvature="0" /><path
           d="m 940,80 6,-6"
           style="fill:none;stroke:#000000;stroke-width:0.75;stroke-linecap:round;stroke-linejoin:miter;stroke-miterlimit:4;stroke-dasharray:none;stroke-opacity:1"
           id="path104"
           inkscape:connector-curvature="0" /><path
           d="m 946,80 6,-6"
           style="fill:none;stroke:#000000;stroke-width:0.75;stroke-linecap:round;stroke-linejoin:miter;stroke-miterlimit:4;stroke-dasharray:none;stroke-opacity:1"
           id="path106"
           inkscape:connector-curvature="0" /><path
           d="M 493.837,616.007 921.881,388.412 922,399.405 493.953,627"
           style="fill:#938d8d;fill-opacity:1;fill-rule:nonzero;stroke:none"
           id="path108"
           inkscape:connector-curvature="0" /><path
           d="M 493.837,616.007 921.881,388.412 922,399.405 493.953,627"
           style="fill:none;stroke:#000000;stroke-width:1;stroke-linecap:round;stroke-linejoin:miter;stroke-miterlimit:4;stroke-dasharray:none;stroke-opacity:1"
           id="path110"
           inkscape:connector-curvature="0" /><path
           d="m 494,627 0,-11"
           style="fill:none;stroke:#000000;stroke-width:1;stroke-linecap:butt;stroke-linejoin:miter;stroke-miterlimit:4;stroke-dasharray:none;stroke-opacity:1"
           id="path112"
           inkscape:connector-curvature="0" /><path
           d="m 608,81.412 0,166.588 96,0 0,-192 -96,0 0,25.412 z"
           style="fill:#c6c9e3;fill-opacity:1;fill-rule:nonzero;stroke:none"
           id="path114"
           inkscape:connector-curvature="0" /><path
           d="m 608,81.412 0,166.588 96,0 0,-192 -96,0 0,25.412"
           style="fill:none;stroke:#283593;stroke-width:1;stroke-linecap:round;stroke-linejoin:miter;stroke-miterlimit:4;stroke-dasharray:none;stroke-opacity:1"
           id="path116"
           inkscape:connector-curvature="0" /><path
           d="m 612.665,239.771 0,-175.215"
           style="fill:none;stroke:#000000;stroke-width:0.75;stroke-linecap:round;stroke-linejoin:miter;stroke-miterlimit:4;stroke-dasharray:6, 4;stroke-dashoffset:0;stroke-opacity:1"
           id="path118"
           inkscape:connector-curvature="0" /><path
           d="m 699.436,239.807 0,-175.288"
           style="fill:none;stroke:#000000;stroke-width:0.75;stroke-linecap:round;stroke-linejoin:miter;stroke-miterlimit:4;stroke-dasharray:6, 4;stroke-dashoffset:0;stroke-opacity:1"
           id="path120"
           inkscape:connector-curvature="0" /><path
           d="m 700,64.603 c -13.95,-2.156 -28.203,-3.269 -43.831,-3.269 -15.259,0 -29.905,1.136 -43.505,3.222"
           style="fill:none;stroke:#000000;stroke-width:0.75;stroke-linecap:round;stroke-linejoin:miter;stroke-miterlimit:4;stroke-dasharray:6, 4;stroke-dashoffset:0;stroke-opacity:1"
           id="path122"
           inkscape:connector-curvature="0" /><path
           d="m 612.664,239.771 c 13.6,2.083 28.246,3.219 43.505,3.219 15.17,0 29.731,-1.121 43.261,-3.178"
           style="fill:none;stroke:#000000;stroke-width:0.75;stroke-linecap:round;stroke-linejoin:miter;stroke-miterlimit:4;stroke-dasharray:6, 4;stroke-dashoffset:0;stroke-opacity:1"
           id="path124"
           inkscape:connector-curvature="0" /><path
           d="M 816,90 704.5,90"
           style="fill:none;stroke:#000000;stroke-width:2;stroke-linecap:round;stroke-linejoin:miter;stroke-miterlimit:4;stroke-dasharray:6, 4;stroke-dashoffset:0;stroke-opacity:1"
           id="path126"
           inkscape:connector-curvature="0" /><path
           d="m 81,322.5 16,0 0,-16 -16,0 0,16 z"
           style="fill:#fdfbe1;fill-opacity:1;fill-rule:nonzero;stroke:none"
           id="path128"
           inkscape:connector-curvature="0" /><path
           d="m 81,322.5 16,0 0,-16 -16,0 0,16 z"
           style="fill:none;stroke:#000000;stroke-width:0.75;stroke-linecap:round;stroke-linejoin:miter;stroke-miterlimit:4;stroke-dasharray:none;stroke-opacity:1"
           id="path130"
           inkscape:connector-curvature="0" /><g
           id="g132"><g
             id="g134" /><g
             id="g144"><g
               clip-path="url(#clipPath136)"
               id="g146"><g
                 id="g148"><g
                   id="g150" /><g
                   id="g152"><g
                     clip-path="url(#clipPath140)"
                     id="g154"><text
                       transform="matrix(1,0,0,-0.47668828,82.9028,311.0723)"
                       style="font-variant:normal;font-weight:normal;font-stretch:normal;font-size:22.29780006px;font-family:Arial;-inkscape-font-specification:ArialMT;writing-mode:lr-tb;fill:#000000;fill-opacity:1;fill-rule:nonzero;stroke:none"
                       id="text156"><tspan
                         x="0"
                         y="0"
                         id="tspan158">ϑ</tspan></text>
</g></g></g></g></g></g><path
           d="m 109,314.5 -12,0"
           style="fill:none;stroke:#000000;stroke-width:0.75;stroke-linecap:round;stroke-linejoin:miter;stroke-miterlimit:4;stroke-dasharray:none;stroke-opacity:1"
           id="path160"
           inkscape:connector-curvature="0" /><path
           d="m 119,56 31,0"
           style="fill:none;stroke:#000000;stroke-width:2;stroke-linecap:round;stroke-linejoin:miter;stroke-miterlimit:4;stroke-dasharray:3, 3;stroke-dashoffset:0;stroke-opacity:1"
           id="path162"
           inkscape:connector-curvature="0" /><path
           d="m 205.5,172.75 30,0 0,-30 -30,0 0,30 z"
           style="fill:#e8eaf6;fill-opacity:1;fill-rule:nonzero;stroke:none"
           id="path164"
           inkscape:connector-curvature="0" /><path
           d="m 205.5,172.75 30,0 0,-30 -30,0 0,30 z"
           style="fill:none;stroke:#283593;stroke-width:1;stroke-linecap:round;stroke-linejoin:miter;stroke-miterlimit:4;stroke-dasharray:none;stroke-opacity:1"
           id="path166"
           inkscape:connector-curvature="0" /><path
           d="m 214.361,148.75 0,2 7.694,10.48 c 0.532,0.729 1.053,1.376 1.561,1.942 l -8.396,0 0,1.922 10.735,0 0,-1.922 -8.404,-11.351 -0.91,-1.149 9.564,0 0,-1.922 -11.844,0 z"
           style="fill:#000000;fill-opacity:1;fill-rule:nonzero;stroke:none"
           id="path168"
           inkscape:connector-curvature="0" /><path
           d="m 676,184 16,0 0,-16 -16,0 0,16 z"
           style="fill:#fdfbe1;fill-opacity:1;fill-rule:nonzero;stroke:none"
           id="path170"
           inkscape:connector-curvature="0" /><path
           d="m 676,184 16,0 0,-16 -16,0 0,16 z"
           style="fill:none;stroke:#000000;stroke-width:0.75;stroke-linecap:round;stroke-linejoin:miter;stroke-miterlimit:4;stroke-dasharray:none;stroke-opacity:1"
           id="path172"
           inkscape:connector-curvature="0" /><g
           id="g174"><g
             id="g176" /><g
             id="g186"><g
               clip-path="url(#clipPath178)"
               id="g188"><g
                 id="g190"><g
                   id="g192" /><g
                   id="g194"><g
                     clip-path="url(#clipPath182)"
                     id="g196"><text
                       transform="matrix(1,0,0,-0.47668828,677.9014,172.5713)"
                       style="font-variant:normal;font-weight:normal;font-stretch:normal;font-size:22.29780006px;font-family:Arial;-inkscape-font-specification:ArialMT;writing-mode:lr-tb;fill:#000000;fill-opacity:1;fill-rule:nonzero;stroke:none"
                       id="text198"><tspan
                         x="0"
                         y="0"
                         id="tspan200">ϑ</tspan></text>
</g></g></g></g></g></g><path
           d="m 704,176 -12,0"
           style="fill:none;stroke:#000000;stroke-width:0.75;stroke-linecap:round;stroke-linejoin:miter;stroke-miterlimit:4;stroke-dasharray:none;stroke-opacity:1"
           id="path202"
           inkscape:connector-curvature="0" /><path
           d="m 150,56 0,101"
           style="fill:none;stroke:#000000;stroke-width:2;stroke-linecap:round;stroke-linejoin:miter;stroke-miterlimit:4;stroke-dasharray:3, 3;stroke-dashoffset:0;stroke-opacity:1"
           id="path204"
           inkscape:connector-curvature="0" /><path
           d="m 645,90 21,28"
           style="fill:none;stroke:#000000;stroke-width:2;stroke-linecap:round;stroke-linejoin:miter;stroke-miterlimit:4;stroke-dasharray:none;stroke-opacity:1"
           id="path206"
           inkscape:connector-curvature="0" /><path
           d="m 666,118 -21,28"
           style="fill:none;stroke:#000000;stroke-width:2;stroke-linecap:round;stroke-linejoin:miter;stroke-miterlimit:4;stroke-dasharray:none;stroke-opacity:1"
           id="path208"
           inkscape:connector-curvature="0" /><path
           d="M 704.12,90 645,90"
           style="fill:none;stroke:#000000;stroke-width:2;stroke-linecap:round;stroke-linejoin:miter;stroke-miterlimit:4;stroke-dasharray:none;stroke-opacity:1"
           id="path210"
           inkscape:connector-curvature="0" /><path
           d="M 704.12,146 645,146"
           style="fill:none;stroke:#000000;stroke-width:2;stroke-linecap:round;stroke-linejoin:miter;stroke-miterlimit:4;stroke-dasharray:none;stroke-opacity:1"
           id="path212"
           inkscape:connector-curvature="0" /><path
           d="M 704.12,146 816,146"
           style="fill:none;stroke:#000000;stroke-width:2;stroke-linecap:round;stroke-linejoin:miter;stroke-miterlimit:4;stroke-dasharray:none;stroke-opacity:1"
           id="path214"
           inkscape:connector-curvature="0" /><path
           d="m 735,174 16,0 0,-16 -16,0 0,16 z"
           style="fill:#fdfbe1;fill-opacity:1;fill-rule:nonzero;stroke:none"
           id="path216"
           inkscape:connector-curvature="0" /><path
           d="m 735,174 16,0 0,-16 -16,0 0,16 z"
           style="fill:none;stroke:#000000;stroke-width:0.75;stroke-linecap:round;stroke-linejoin:miter;stroke-miterlimit:4;stroke-dasharray:none;stroke-opacity:1"
           id="path218"
           inkscape:connector-curvature="0" /><g
           id="g220"><g
             id="g222" /><g
             id="g232"><g
               clip-path="url(#clipPath224)"
               id="g234"><g
                 id="g236"><g
                   id="g238" /><g
                   id="g240"><g
                     clip-path="url(#clipPath228)"
                     id="g242"><text
                       transform="matrix(1,0,0,-0.47668828,736.9023,162.5723)"
                       style="font-variant:normal;font-weight:normal;font-stretch:normal;font-size:22.29780006px;font-family:Arial;-inkscape-font-specification:ArialMT;writing-mode:lr-tb;fill:#000000;fill-opacity:1;fill-rule:nonzero;stroke:none"
                       id="text244"><tspan
                         x="0"
                         y="0"
                         id="tspan246">ϑ</tspan></text>
</g></g></g></g></g></g><path
           d="m 743,158 0,-12"
           style="fill:none;stroke:#000000;stroke-width:0.75;stroke-linecap:round;stroke-linejoin:miter;stroke-miterlimit:4;stroke-dasharray:none;stroke-opacity:1"
           id="path248"
           inkscape:connector-curvature="0" /><path
           d="m 735,78 16,0 0,-16 -16,0 0,16 z"
           style="fill:#fdfbe1;fill-opacity:1;fill-rule:nonzero;stroke:none"
           id="path250"
           inkscape:connector-curvature="0" /><path
           d="m 735,78 16,0 0,-16 -16,0 0,16 z"
           style="fill:none;stroke:#000000;stroke-width:0.75;stroke-linecap:round;stroke-linejoin:miter;stroke-miterlimit:4;stroke-dasharray:none;stroke-opacity:1"
           id="path252"
           inkscape:connector-curvature="0" /><g
           id="g254"><g
             id="g256" /><g
             id="g266"><g
               clip-path="url(#clipPath258)"
               id="g268"><g
                 id="g270"><g
                   id="g272" /><g
                   id="g274"><g
                     clip-path="url(#clipPath262)"
                     id="g276"><text
                       transform="matrix(1,0,0,-0.47668828,736.9033,66.5723)"
                       style="font-variant:normal;font-weight:normal;font-stretch:normal;font-size:22.29780006px;font-family:Arial;-inkscape-font-specification:ArialMT;writing-mode:lr-tb;fill:#000000;fill-opacity:1;fill-rule:nonzero;stroke:none"
                       id="text278"><tspan
                         x="0"
                         y="0"
                         id="tspan280">ϑ</tspan></text>
</g></g></g></g></g></g><path
           d="m 743,90 0,-12"
           style="fill:none;stroke:#000000;stroke-width:0.75;stroke-linecap:round;stroke-linejoin:miter;stroke-miterlimit:4;stroke-dasharray:none;stroke-opacity:1"
           id="path282"
           inkscape:connector-curvature="0" /><path
           d="m 879,346 -770,0 0,10 770,0 0,-10 z"
           style="fill:#938d8d;fill-opacity:1;fill-rule:nonzero;stroke:none"
           id="path284"
           inkscape:connector-curvature="0" /><path
           d="m 879,346 -770,0 0,10 770,0 0,-10 z"
           style="fill:none;stroke:#000000;stroke-width:1;stroke-linecap:butt;stroke-linejoin:miter;stroke-miterlimit:4;stroke-dasharray:none;stroke-opacity:1"
           id="path286"
           inkscape:connector-curvature="0" /><path
           d="m 355.5,212.628 0,42.206"
           style="fill:none;stroke:#000000;stroke-width:2;stroke-linecap:round;stroke-linejoin:miter;stroke-miterlimit:4;stroke-dasharray:none;stroke-opacity:1"
           id="path288"
           inkscape:connector-curvature="0" /><path
           d="M 386.967,254.999 387.035,72"
           style="fill:none;stroke:#000000;stroke-width:2;stroke-linecap:round;stroke-linejoin:miter;stroke-miterlimit:4;stroke-dasharray:none;stroke-opacity:1"
           id="path290"
           inkscape:connector-curvature="0" /><path
           d="m 325.768,214.75 0,81.25"
           style="fill:none;stroke:#000000;stroke-width:2;stroke-linecap:round;stroke-linejoin:miter;stroke-miterlimit:4;stroke-dasharray:none;stroke-opacity:1"
           id="path292"
           inkscape:connector-curvature="0" /><path
           d="m 295.75,219 0,77"
           style="fill:none;stroke:#000000;stroke-width:2;stroke-linecap:round;stroke-linejoin:miter;stroke-miterlimit:4;stroke-dasharray:none;stroke-opacity:1"
           id="path294"
           inkscape:connector-curvature="0" /><path
           d="m 355.5,255 31.5,0"
           style="fill:none;stroke:#000000;stroke-width:2;stroke-linecap:round;stroke-linejoin:miter;stroke-miterlimit:4;stroke-dasharray:none;stroke-opacity:1"
           id="path296"
           inkscape:connector-curvature="0" /><path
           d="M 461,176.25 461,296"
           style="fill:none;stroke:#000000;stroke-width:2;stroke-linecap:round;stroke-linejoin:miter;stroke-miterlimit:4;stroke-dasharray:none;stroke-opacity:1"
           id="path298"
           inkscape:connector-curvature="0" /><path
           d="m 430.9,146.504 0.112,72.244"
           style="fill:none;stroke:#000000;stroke-width:2;stroke-linecap:round;stroke-linejoin:miter;stroke-miterlimit:4;stroke-dasharray:6, 4;stroke-dashoffset:0;stroke-opacity:1"
           id="path300"
           inkscape:connector-curvature="0" /><path
           d="m 446,227 c 0,-8.285 -6.715,-15 -15,-15 -8.285,0 -15,6.715 -15,15 0,8.285 6.715,15 15,15 8.285,0 15,-6.715 15,-15"
           style="fill:#e8eaf6;fill-opacity:1;fill-rule:nonzero;stroke:none"
           id="path302"
           inkscape:connector-curvature="0" /><path
           d="m 446,227 c 0,-8.285 -6.715,-15 -15,-15 -8.285,0 -15,6.715 -15,15 0,8.285 6.715,15 15,15 8.285,0 15,-6.715 15,-15 z"
           style="fill:none;stroke:#000000;stroke-width:1;stroke-linecap:butt;stroke-linejoin:miter;stroke-miterlimit:4;stroke-dasharray:none;stroke-opacity:1"
           id="path304"
           inkscape:connector-curvature="0" /><path
           d="M 416.25,228 431,212"
           style="fill:none;stroke:#000000;stroke-width:1;stroke-linecap:round;stroke-linejoin:miter;stroke-miterlimit:4;stroke-dasharray:none;stroke-opacity:1"
           id="path306"
           inkscape:connector-curvature="0" /><path
           d="M 445.75,228 431,212"
           style="fill:none;stroke:#000000;stroke-width:1;stroke-linecap:round;stroke-linejoin:miter;stroke-miterlimit:4;stroke-dasharray:none;stroke-opacity:1"
           id="path308"
           inkscape:connector-curvature="0" /><path
           d="m 295.557,303.824 0,13"
           style="fill:#000000;fill-opacity:1;fill-rule:nonzero;stroke:none"
           id="path310"
           inkscape:connector-curvature="0" /><path
           d="m 295.557,303.824 0,13"
           style="fill:none;stroke:#000000;stroke-width:3;stroke-linecap:butt;stroke-linejoin:miter;stroke-miterlimit:4;stroke-dasharray:none;stroke-opacity:1"
           id="path312"
           inkscape:connector-curvature="0" /><path
           d="m 290.555,315.365 4.986,8.635 4.986,-8.635 -9.972,0 z"
           style="fill:#000000;fill-opacity:1;fill-rule:nonzero;stroke:none"
           id="path314"
           inkscape:connector-curvature="0" /><path
           d="m 325.779,303.824 0,13"
           style="fill:#000000;fill-opacity:1;fill-rule:nonzero;stroke:none"
           id="path316"
           inkscape:connector-curvature="0" /><path
           d="m 325.779,303.824 0,13"
           style="fill:none;stroke:#000000;stroke-width:3;stroke-linecap:butt;stroke-linejoin:miter;stroke-miterlimit:4;stroke-dasharray:none;stroke-opacity:1"
           id="path318"
           inkscape:connector-curvature="0" /><path
           d="m 320.777,315.365 4.987,8.635 4.986,-8.635 -9.973,0 z"
           style="fill:#000000;fill-opacity:1;fill-rule:nonzero;stroke:none"
           id="path320"
           inkscape:connector-curvature="0" /><path
           d="m 430.775,324 0,-13"
           style="fill:#000000;fill-opacity:1;fill-rule:nonzero;stroke:none"
           id="path322"
           inkscape:connector-curvature="0" /><path
           d="m 430.775,324 0,-13"
           style="fill:none;stroke:#000000;stroke-width:3;stroke-linecap:butt;stroke-linejoin:miter;stroke-miterlimit:4;stroke-dasharray:none;stroke-opacity:1"
           id="path324"
           inkscape:connector-curvature="0" /><path
           d="m 435.777,312.459 -4.986,-8.635 -4.986,8.635 9.972,0 z"
           style="fill:#000000;fill-opacity:1;fill-rule:nonzero;stroke:none"
           id="path326"
           inkscape:connector-curvature="0" /><path
           d="m 461.029,303.824 0,13"
           style="fill:#000000;fill-opacity:1;fill-rule:nonzero;stroke:none"
           id="path328"
           inkscape:connector-curvature="0" /><path
           d="m 461.029,303.824 0,13"
           style="fill:none;stroke:#000000;stroke-width:3;stroke-linecap:butt;stroke-linejoin:miter;stroke-miterlimit:4;stroke-dasharray:none;stroke-opacity:1"
           id="path330"
           inkscape:connector-curvature="0" /><path
           d="m 456.027,315.365 4.987,8.635 4.986,-8.635 -9.973,0 z"
           style="fill:#000000;fill-opacity:1;fill-rule:nonzero;stroke:none"
           id="path332"
           inkscape:connector-curvature="0" /><path
           d="m 825.824,90.252 13,0"
           style="fill:#000000;fill-opacity:1;fill-rule:nonzero;stroke:none"
           id="path334"
           inkscape:connector-curvature="0" /><path
           d="m 825.824,90.252 13,0"
           style="fill:none;stroke:#000000;stroke-width:3;stroke-linecap:butt;stroke-linejoin:miter;stroke-miterlimit:4;stroke-dasharray:none;stroke-opacity:1"
           id="path336"
           inkscape:connector-curvature="0" /><path
           d="m 837.365,85.25 8.635,4.986 -8.635,4.987 0,-9.973 z"
           style="fill:#000000;fill-opacity:1;fill-rule:nonzero;stroke:none"
           id="path338"
           inkscape:connector-curvature="0" /><path
           d="m 845.5,146.248 -13,0"
           style="fill:#000000;fill-opacity:1;fill-rule:nonzero;stroke:none"
           id="path340"
           inkscape:connector-curvature="0" /><path
           d="m 845.5,146.248 -13,0"
           style="fill:none;stroke:#000000;stroke-width:3;stroke-linecap:butt;stroke-linejoin:miter;stroke-miterlimit:4;stroke-dasharray:none;stroke-opacity:1"
           id="path342"
           inkscape:connector-curvature="0" /><path
           d="m 833.959,151.25 -8.635,-4.986 8.635,-4.987 0,9.973 z"
           style="fill:#000000;fill-opacity:1;fill-rule:nonzero;stroke:none"
           id="path344"
           inkscape:connector-curvature="0" /><path
           d="m 596,240 -16,0 0,-16 16,0 0,16 z"
           style="fill:#fdfbe1;fill-opacity:1;fill-rule:nonzero;stroke:none"
           id="path346"
           inkscape:connector-curvature="0" /><path
           d="m 596,224 0,16 -16,0 0,-16 16,0 z"
           style="fill:none;stroke:#000000;stroke-width:0.75;stroke-linecap:round;stroke-linejoin:miter;stroke-miterlimit:4;stroke-dasharray:none;stroke-opacity:1"
           id="path348"
           inkscape:connector-curvature="0" /><path
           d="m 608,232 -12,0"
           style="fill:none;stroke:#000000;stroke-width:0.75;stroke-linecap:round;stroke-linejoin:miter;stroke-miterlimit:4;stroke-dasharray:none;stroke-opacity:1"
           id="path350"
           inkscape:connector-curvature="0" /><text
           transform="matrix(1,0,0,-1,582.5,227.5)"
           style="font-variant:normal;font-weight:normal;font-stretch:normal;font-size:12px;font-family:Arial;-inkscape-font-specification:ArialMT;writing-mode:lr-tb;fill:#000000;fill-opacity:1;fill-rule:nonzero;stroke:none"
           id="text352"><tspan
             x="0"
             y="0"
             id="tspan354">Q</tspan></text>
<path
           d="m 561,84 16,0 0,16 -16,0 0,-16 z"
           style="fill:#fdfbe1;fill-opacity:1;fill-rule:nonzero;stroke:none"
           id="path356"
           inkscape:connector-curvature="0" /><path
           d="m 561,84 16,0 0,16 -16,0 0,-16 z"
           style="fill:none;stroke:#000000;stroke-width:0.75;stroke-linecap:round;stroke-linejoin:miter;stroke-miterlimit:4;stroke-dasharray:none;stroke-opacity:1"
           id="path358"
           inkscape:connector-curvature="0" /><g
           id="g360"><g
             id="g362" /><g
             id="g372"><g
               clip-path="url(#clipPath364)"
               id="g374"><g
                 id="g376"><g
                   id="g378" /><g
                   id="g380"><g
                     clip-path="url(#clipPath368)"
                     id="g382"><text
                       transform="matrix(1,0,0,-0.47668828,562.9033,88.7002)"
                       style="font-variant:normal;font-weight:normal;font-stretch:normal;font-size:22.29780006px;font-family:Arial;-inkscape-font-specification:ArialMT;writing-mode:lr-tb;fill:#000000;fill-opacity:1;fill-rule:nonzero;stroke:none"
                       id="text384"><tspan
                         x="0"
                         y="0"
                         id="tspan386">ϑ</tspan></text>
</g></g></g></g></g></g><path
           d="m 569,72 0,12"
           style="fill:none;stroke:#000000;stroke-width:0.75;stroke-linecap:round;stroke-linejoin:miter;stroke-miterlimit:4;stroke-dasharray:none;stroke-opacity:1"
           id="path388"
           inkscape:connector-curvature="0" /><path
           d="m 194,148 -24,0 0,18 24,0 0,-18 z"
           style="fill:#ffffff;fill-opacity:1;fill-rule:nonzero;stroke:none"
           id="path390"
           inkscape:connector-curvature="0" /><path
           d="m 194,165.456 0,-17"
           style="fill:none;stroke:#000000;stroke-width:1;stroke-linecap:round;stroke-linejoin:miter;stroke-miterlimit:4;stroke-dasharray:none;stroke-opacity:1"
           id="path392"
           inkscape:connector-curvature="0" /><path
           d="m 170,165.456 24,-17"
           style="fill:none;stroke:#000000;stroke-width:1;stroke-linecap:round;stroke-linejoin:miter;stroke-miterlimit:4;stroke-dasharray:none;stroke-opacity:1"
           id="path394"
           inkscape:connector-curvature="0" /><path
           d="m 170,148.456 24,17"
           style="fill:none;stroke:#000000;stroke-width:1;stroke-linecap:round;stroke-linejoin:miter;stroke-miterlimit:4;stroke-dasharray:none;stroke-opacity:1"
           id="path396"
           inkscape:connector-curvature="0" /><path
           d="m 170,165.456 0,-17"
           style="fill:none;stroke:#000000;stroke-width:1;stroke-linecap:round;stroke-linejoin:miter;stroke-miterlimit:4;stroke-dasharray:none;stroke-opacity:1"
           id="path398"
           inkscape:connector-curvature="0" /><path
           d="m 184,156.956 c 0,-1.103 -0.895,-2 -2,-2 -1.104,0 -2,0.897 -2,2 0,1.105 0.896,2 2,2 1.105,0 2,-0.895 2,-2"
           style="fill:#ffffff;fill-opacity:1;fill-rule:nonzero;stroke:none"
           id="path400"
           inkscape:connector-curvature="0" /><path
           d="m 184,156.956 c 0,-1.103 -0.895,-2 -2,-2 -1.104,0 -2,0.897 -2,2 0,1.105 0.896,2 2,2 1.105,0 2,-0.895 2,-2 z"
           style="fill:none;stroke:#000000;stroke-width:1;stroke-linecap:butt;stroke-linejoin:miter;stroke-miterlimit:4;stroke-dasharray:none;stroke-opacity:1"
           id="path402"
           inkscape:connector-curvature="0" /><path
           d="m 271,148 -24,0 0,18 24,0 0,-18 z"
           style="fill:#ffffff;fill-opacity:1;fill-rule:nonzero;stroke:none"
           id="path404"
           inkscape:connector-curvature="0" /><path
           d="m 271,165.456 0,-17"
           style="fill:none;stroke:#000000;stroke-width:1;stroke-linecap:round;stroke-linejoin:miter;stroke-miterlimit:4;stroke-dasharray:none;stroke-opacity:1"
           id="path406"
           inkscape:connector-curvature="0" /><path
           d="m 247,165.456 24,-17"
           style="fill:none;stroke:#000000;stroke-width:1;stroke-linecap:round;stroke-linejoin:miter;stroke-miterlimit:4;stroke-dasharray:none;stroke-opacity:1"
           id="path408"
           inkscape:connector-curvature="0" /><path
           d="m 247,148.456 24,17"
           style="fill:none;stroke:#000000;stroke-width:1;stroke-linecap:round;stroke-linejoin:miter;stroke-miterlimit:4;stroke-dasharray:none;stroke-opacity:1"
           id="path410"
           inkscape:connector-curvature="0" /><path
           d="m 247,165.456 0,-17"
           style="fill:none;stroke:#000000;stroke-width:1;stroke-linecap:round;stroke-linejoin:miter;stroke-miterlimit:4;stroke-dasharray:none;stroke-opacity:1"
           id="path412"
           inkscape:connector-curvature="0" /><path
           d="m 261,156.956 c 0,-1.103 -0.895,-2 -2,-2 -1.104,0 -2,0.897 -2,2 0,1.105 0.896,2 2,2 1.105,0 2,-0.895 2,-2"
           style="fill:#ffffff;fill-opacity:1;fill-rule:nonzero;stroke:none"
           id="path414"
           inkscape:connector-curvature="0" /><path
           d="m 261,156.956 c 0,-1.103 -0.895,-2 -2,-2 -1.104,0 -2,0.897 -2,2 0,1.105 0.896,2 2,2 1.105,0 2,-0.895 2,-2 z"
           style="fill:none;stroke:#000000;stroke-width:1;stroke-linecap:butt;stroke-linejoin:miter;stroke-miterlimit:4;stroke-dasharray:none;stroke-opacity:1"
           id="path416"
           inkscape:connector-curvature="0" /><path
           d="m 364,195.5 -77,0 0,24.75 77,0 0,-24.75 z"
           style="fill:#ffffff;fill-opacity:1;fill-rule:nonzero;stroke:none"
           id="path418"
           inkscape:connector-curvature="0" /><path
           d="m 287.324,220 17,0"
           style="fill:none;stroke:#000000;stroke-width:1;stroke-linecap:round;stroke-linejoin:miter;stroke-miterlimit:4;stroke-dasharray:none;stroke-opacity:1"
           id="path420"
           inkscape:connector-curvature="0" /><path
           d="m 287.324,196 17,24"
           style="fill:none;stroke:#000000;stroke-width:1;stroke-linecap:round;stroke-linejoin:miter;stroke-miterlimit:4;stroke-dasharray:none;stroke-opacity:1"
           id="path422"
           inkscape:connector-curvature="0" /><path
           d="m 304.324,196 -17,24"
           style="fill:none;stroke:#000000;stroke-width:1;stroke-linecap:round;stroke-linejoin:miter;stroke-miterlimit:4;stroke-dasharray:none;stroke-opacity:1"
           id="path424"
           inkscape:connector-curvature="0" /><path
           d="m 287.324,196 17,0"
           style="fill:none;stroke:#000000;stroke-width:1;stroke-linecap:round;stroke-linejoin:miter;stroke-miterlimit:4;stroke-dasharray:none;stroke-opacity:1"
           id="path426"
           inkscape:connector-curvature="0" /><path
           d="m 297.824,207.231 c 0,-1.103 -0.894,-2 -2,-2 -1.103,0 -2,0.897 -2,2 0,1.105 0.897,2 2,2 1.106,0 2,-0.895 2,-2"
           style="fill:#ffffff;fill-opacity:1;fill-rule:nonzero;stroke:none"
           id="path428"
           inkscape:connector-curvature="0" /><path
           d="m 297.824,207.231 c 0,-1.103 -0.894,-2 -2,-2 -1.103,0 -2,0.897 -2,2 0,1.105 0.897,2 2,2 1.106,0 2,-0.895 2,-2 z"
           style="fill:none;stroke:#000000;stroke-width:1;stroke-linecap:round;stroke-linejoin:miter;stroke-miterlimit:4;stroke-dasharray:none;stroke-opacity:1"
           id="path430"
           inkscape:connector-curvature="0" /><path
           d="m 317.491,220 17,0"
           style="fill:none;stroke:#000000;stroke-width:1;stroke-linecap:round;stroke-linejoin:miter;stroke-miterlimit:4;stroke-dasharray:none;stroke-opacity:1"
           id="path432"
           inkscape:connector-curvature="0" /><path
           d="m 317.491,196 17,24"
           style="fill:none;stroke:#000000;stroke-width:1;stroke-linecap:round;stroke-linejoin:miter;stroke-miterlimit:4;stroke-dasharray:none;stroke-opacity:1"
           id="path434"
           inkscape:connector-curvature="0" /><path
           d="m 334.491,196 -17,24"
           style="fill:none;stroke:#000000;stroke-width:1;stroke-linecap:round;stroke-linejoin:miter;stroke-miterlimit:4;stroke-dasharray:none;stroke-opacity:1"
           id="path436"
           inkscape:connector-curvature="0" /><path
           d="m 317.491,196 17,0"
           style="fill:none;stroke:#000000;stroke-width:1;stroke-linecap:round;stroke-linejoin:miter;stroke-miterlimit:4;stroke-dasharray:none;stroke-opacity:1"
           id="path438"
           inkscape:connector-curvature="0" /><path
           d="m 327.991,207.231 c 0,-1.103 -0.895,-2 -2,-2 -1.104,0 -2,0.897 -2,2 0,1.105 0.896,2 2,2 1.105,0 2,-0.895 2,-2"
           style="fill:#ffffff;fill-opacity:1;fill-rule:nonzero;stroke:none"
           id="path440"
           inkscape:connector-curvature="0" /><path
           d="m 327.991,207.231 c 0,-1.103 -0.895,-2 -2,-2 -1.104,0 -2,0.897 -2,2 0,1.105 0.896,2 2,2 1.105,0 2,-0.895 2,-2 z"
           style="fill:none;stroke:#000000;stroke-width:1;stroke-linecap:round;stroke-linejoin:miter;stroke-miterlimit:4;stroke-dasharray:none;stroke-opacity:1"
           id="path442"
           inkscape:connector-curvature="0" /><path
           d="m 346.75,220 17,0"
           style="fill:none;stroke:#000000;stroke-width:1;stroke-linecap:round;stroke-linejoin:miter;stroke-miterlimit:4;stroke-dasharray:none;stroke-opacity:1"
           id="path444"
           inkscape:connector-curvature="0" /><path
           d="m 346.75,196 17,24"
           style="fill:none;stroke:#000000;stroke-width:1;stroke-linecap:round;stroke-linejoin:miter;stroke-miterlimit:4;stroke-dasharray:none;stroke-opacity:1"
           id="path446"
           inkscape:connector-curvature="0" /><path
           d="m 363.75,196 -17,24"
           style="fill:none;stroke:#000000;stroke-width:1;stroke-linecap:round;stroke-linejoin:miter;stroke-miterlimit:4;stroke-dasharray:none;stroke-opacity:1"
           id="path448"
           inkscape:connector-curvature="0" /><path
           d="m 346.75,196 17,0"
           style="fill:none;stroke:#000000;stroke-width:1;stroke-linecap:round;stroke-linejoin:miter;stroke-miterlimit:4;stroke-dasharray:none;stroke-opacity:1"
           id="path450"
           inkscape:connector-curvature="0" /><path
           d="m 357.25,207.231 c 0,-1.103 -0.895,-2 -2,-2 -1.104,0 -2,0.897 -2,2 0,1.105 0.896,2 2,2 1.105,0 2,-0.895 2,-2"
           style="fill:#ffffff;fill-opacity:1;fill-rule:nonzero;stroke:none"
           id="path452"
           inkscape:connector-curvature="0" /><path
           d="m 357.25,207.231 c 0,-1.103 -0.895,-2 -2,-2 -1.104,0 -2,0.897 -2,2 0,1.105 0.896,2 2,2 1.105,0 2,-0.895 2,-2 z"
           style="fill:none;stroke:#000000;stroke-width:1;stroke-linecap:round;stroke-linejoin:miter;stroke-miterlimit:4;stroke-dasharray:none;stroke-opacity:1"
           id="path454"
           inkscape:connector-curvature="0" /></g></g></g></svg>